<?xml version="1.0" standalone="no"?>
<!DOCTYPE svg PUBLIC "-//W3C//DTD SVG 20010904//EN"
 "http://www.w3.org/TR/2001/REC-SVG-20010904/DTD/svg10.dtd">
<svg version="1.0" xmlns="http://www.w3.org/2000/svg"
 width="1024.000000pt" height="1024.000000pt" viewBox="0 0 1024.000000 1024.000000"
 preserveAspectRatio="xMidYMid meet">

<g transform="translate(0.000000,1024.000000) scale(0.100000,-0.100000)"
fill="#000000" stroke="none">
<path d="M2484 6741 c-182 -29 -332 -136 -417 -298 -43 -82 -62 -151 -72 -256
l-7 -77 -192 0 c-170 0 -194 -2 -222 -19 -17 -11 -34 -30 -37 -43 -6 -21 -34
-268 -152 -1328 -24 -223 -54 -491 -66 -597 -21 -183 -21 -193 -5 -218 38 -58
-19 -56 1274 -53 942 2 1192 6 1209 16 13 7 29 25 38 41 13 26 11 57 -20 327
-19 165 -71 632 -116 1039 -58 527 -86 750 -98 775 -26 55 -44 60 -258 60
l-193 0 0 39 c0 79 -30 196 -71 281 -108 220 -354 349 -595 311z m207 -211
c84 -27 151 -77 199 -151 39 -61 70 -163 70 -233 l0 -36 -391 0 -390 0 6 58
c15 129 49 205 123 274 109 102 242 132 383 88z m584 -832 c-2 -13 -12 -95
-20 -183 -9 -88 -19 -163 -23 -167 -4 -4 -111 -9 -237 -10 l-229 -3 -9 -40
c-4 -22 -30 -167 -58 -323 -27 -155 -54 -293 -59 -306 -4 -13 -21 -33 -37 -45
-15 -13 -98 -89 -183 -170 -85 -80 -181 -170 -212 -200 l-57 -53 4 33 c10 73
108 696 141 893 19 114 34 210 34 212 0 2 -112 4 -250 4 -235 0 -250 1 -250
18 0 10 9 90 20 178 11 87 20 165 20 172 0 9 148 12 705 12 l705 0 -5 -22z
m138 -1095 c38 -340 45 -428 35 -435 -7 -4 -238 -8 -513 -8 l-500 1 40 36
c108 98 492 460 675 635 113 109 207 197 210 198 3 0 27 -192 53 -427z"/>
<path d="M6433 6140 c-201 -36 -346 -177 -389 -379 -37 -177 10 -344 130 -460
89 -85 151 -114 279 -130 197 -26 394 73 468 234 52 113 58 105 -75 105 -91 0
-116 -3 -116 -14 0 -7 -18 -34 -40 -59 -86 -98 -234 -104 -336 -14 -80 70
-114 176 -93 291 21 118 83 195 177 222 104 31 206 -2 269 -85 l34 -44 102 2
c56 1 103 4 105 6 8 8 -29 100 -59 146 -83 130 -285 209 -456 179z"/>
<path d="M4250 6035 l0 -94 158 -3 157 -3 0 -377 0 -378 110 0 110 0 -3 380
-2 380 145 0 145 0 0 95 0 95 -410 0 -410 0 0 -95z"/>
<path d="M5220 5655 l0 -475 360 0 360 0 0 95 0 95 -255 0 -255 0 0 105 0 105
225 0 225 0 0 90 0 90 -225 0 -225 0 0 90 0 90 255 0 255 0 0 95 0 95 -360 0
-360 0 0 -475z"/>
<path d="M7090 5655 l0 -475 110 0 110 0 0 195 0 195 185 0 185 0 0 -195 0
-195 110 0 110 0 0 475 0 475 -110 0 -110 0 0 -185 0 -185 -185 0 -185 0 0
185 0 185 -110 0 -110 0 0 -475z"/>
<path d="M8068 5633 c-2 -49 -1 -91 3 -96 3 -4 109 -6 235 -5 l229 3 3 93 3
92 -235 0 -235 0 -3 -87z"/>
<path d="M4538 4881 c-146 -48 -218 -137 -218 -271 0 -156 86 -229 332 -283
184 -41 224 -71 201 -150 -14 -49 -62 -72 -153 -71 -97 0 -154 27 -179 85
l-16 39 -104 0 -103 0 7 -47 c22 -157 179 -263 389 -263 240 0 402 138 383
325 -14 137 -102 210 -307 255 -157 34 -197 48 -219 76 -38 49 -17 111 46 135
33 12 135 12 170 -2 36 -13 73 -47 84 -78 8 -21 14 -23 47 -17 20 3 66 6 101
6 l63 0 -7 37 c-16 88 -82 165 -180 209 -52 24 -75 28 -170 31 -87 2 -122 -1
-167 -16z"/>
<path d="M6351 4884 c-202 -54 -343 -247 -344 -469 -3 -289 200 -496 486 -495
308 1 526 254 485 565 -25 191 -166 351 -355 400 -72 19 -201 18 -272 -1z
m220 -190 c72 -21 147 -96 172 -173 19 -59 22 -157 7 -211 -16 -57 -66 -127
-110 -155 -132 -83 -297 -41 -373 94 -26 47 -32 68 -35 142 -5 109 13 171 71
235 30 32 58 51 97 64 68 24 101 24 171 4z"/>
<path d="M5140 4790 l0 -100 150 0 150 0 0 -378 0 -378 110 -1 110 -2 0 380 0
379 140 0 140 0 0 100 0 100 -400 0 -400 0 0 -100z"/>
<path d="M7130 4412 l0 -477 105 -3 105 -3 0 171 0 170 85 0 85 0 23 -37 c13
-21 56 -98 96 -170 l73 -133 124 1 c119 0 135 3 115 24 -5 6 -48 75 -97 155
-48 80 -93 155 -101 166 -13 21 -11 23 31 44 93 45 140 132 140 260 0 132 -45
214 -145 266 -70 35 -151 44 -406 44 l-233 0 0 -478z m504 274 c46 -19 66 -52
66 -107 0 -32 -7 -55 -22 -74 -35 -45 -74 -55 -213 -55 l-125 0 0 125 0 125
130 0 c89 0 141 -4 164 -14z"/>
<path d="M8090 4411 l0 -479 355 -1 355 -2 0 96 0 95 -250 0 -250 0 0 100 0
100 225 0 225 0 0 95 0 95 -225 0 -226 0 3 93 3 92 248 3 247 2 0 95 0 94
-355 0 -355 1 0 -479z"/>
</g>
</svg>
